<?xml version="1.0" encoding="UTF-8"?>
<svg id="Ebene_1" data-name="Ebene 1" xmlns="http://www.w3.org/2000/svg" viewBox="0 0 888.22 49.57">
  <path d="M0,1.23h57.62v14.98H18.42v5.77h34.59v13.82H18.42v12.69H0V1.23Z"/>
  <path d="M62.89,1.23h55.3v12.09h-36.88v6.05h36.88v10.93h-36.88v6.05h36.88v12.13h-55.3V1.23Z"/>
  <path d="M146.39,1.16v32.27h36.88v14.98h-55.3V1.16h18.42Z"/>
  <path d="M207.91,1.16v47.25h-18.42V1.16h18.42Z"/>
  <path d="M260.23,1.23h23.03l-24.79,23.62,24.79,23.62h-23.03l-13.25-13.82-13.25,13.82h-23.06l24.79-23.62L210.66,1.23h23.06l13.25,13.78,13.25-13.78Z"/>
  <path d="M383.2,35.79c.11,8.26-6.86,12.69-14.98,12.69h-48.41V1.23h44.93c8.19-.04,15.12,4.43,15.01,12.66,0,4.54-2.11,8.02-5.48,10.16,5.34,1.72,8.93,5.8,8.93,11.74ZM338.24,12.45v6.36h21.34c1.58,0,2.88-1.62,2.88-3.2s-1.3-3.16-2.88-3.16h-21.34ZM363.02,37.23c1.58,0,2.88-1.58,2.88-3.16s-1.3-3.16-2.88-3.16h-24.79v6.33h24.79Z"/>
  <path d="M432.95,1.16h18.46v25.38c.07,17.86-14.55,22.99-32.27,23.03-17.72-.04-32.34-5.17-32.27-23.03V1.16h18.42v24.22c-.07,7.77,6.29,9.11,13.85,9.21,7.52-.11,13.92-1.44,13.82-9.21V1.16Z"/>
  <path d="M521.65,28.83c-1.16,15.96-15.15,20.74-32.17,20.74-17.72-.04-32.34-5.17-32.27-23.06v-3.45c-.07-17.86,14.55-22.99,32.27-23.06,17.02.04,31.01,4.82,32.17,20.74h-18.88c-1.72-4.64-6.96-5.73-13.29-5.73-7.52.11-13.92,1.44-13.82,9.21v1.16c-.11,7.7,6.29,9.11,13.82,9.21,6.33,0,11.6-1.12,13.29-5.77h18.88Z"/>
  <path d="M545.55,32.27v16.14h-18.42V1.16h18.42v16.14h27.67V1.16h18.46v47.25h-18.46v-16.14h-27.67Z"/>
  <path d="M679.64,1.23h20.74l-20.74,47.25h-21.9l-10.37-23.62-10.37,23.62h-21.9l-20.74-47.25h20.74l10.93,29.92,10.97-29.92h20.74l10.93,29.92,10.97-29.92Z"/>
  <path d="M713.5,1.23h21.9l25.35,47.25h-20.74l-3.73-8.09h-23.66l-3.73,8.09h-20.74l25.35-47.25ZM717.96,28.86h12.97l-6.47-13.96-6.5,13.96Z"/>
  <path d="M780.57,1.16v32.27h36.88v14.98h-55.3V1.16h18.42Z"/>
  <path d="M865.72,1.23c12.97-.18,22.61,10.72,22.5,23.62.11,12.83-9.53,23.8-22.5,23.62h-42.05V1.23h42.05ZM862.28,16.21h-20.18v17.3h20.18c4.78,0,7.49-3.9,7.49-8.65s-2.71-8.65-7.49-8.65Z"/>
</svg>